<?xml version="1.0" standalone="no"?><!DOCTYPE svg PUBLIC "-//W3C//DTD SVG 1.1//EN" "http://www.w3.org/Graphics/SVG/1.1/DTD/svg11.dtd"><svg t="1783068844157" class="icon" viewBox="0 0 1024 1024" version="1.1" xmlns="http://www.w3.org/2000/svg" p-id="107127" xmlns:xlink="http://www.w3.org/1999/xlink" width="200" height="200"><path d="M99.91 183.2h530.18v715.91H99.91z" fill="#9FD4FF" p-id="107128"></path><path d="M630 865.58h-21.52V193.96H121.54v694.93h-21.52V172.44H630v693.14z" fill="#DEF1FC" p-id="107129"></path><path d="M173.47 257.98h385.79v126.55H173.47zM349 504a87.75 87.75 0 1 1-87.74-87.74A87.74 87.74 0 0 1 349 504z" fill="#55A4F2" p-id="107130"></path><path d="M257.43 543.84v-32.1h-32.26v-15.87h32.26v-31.74h15.2v31.74h32.25v15.87h-32.25v32.1z" fill="#FFFFFF" p-id="107131"></path><path d="M349 735.54a87.75 87.75 0 1 1-87.74-87.75A87.74 87.74 0 0 1 349 735.54z" fill="#55A4F2" p-id="107132"></path><path d="M284 769.21l-22.69-22.69-22.81 22.81-11.2-11.23 22.81-22.8-22.45-22.45 10.75-10.75 22.44 22.45 22.81-22.81L294.88 713l-22.8 22.8 22.69 22.69z" fill="#FFFFFF" p-id="107133"></path><path d="M559.26 504a87.75 87.75 0 1 1-87.75-87.74A87.75 87.75 0 0 1 559.26 504z" fill="#55A4F2" p-id="107134"></path><path d="M446.9 512.85v-17.74H503v17.74z" fill="#FFFFFF" p-id="107135"></path><path d="M559.26 735.54a87.75 87.75 0 1 1-87.75-87.75 87.75 87.75 0 0 1 87.75 87.75z" fill="#55A4F2" p-id="107136"></path><path d="M443.09 744.4v-17.73h56.05v17.73z" fill="#FFFFFF" p-id="107137"></path><path d="M471.11 702.23m-12.48 0a12.48 12.48 0 1 0 24.96 0 12.48 12.48 0 1 0-24.96 0Z" fill="#414042" p-id="107138"></path><path d="M483.59 770.16a12.48 12.48 0 1 1-12.48-12.48 12.47 12.47 0 0 1 12.48 12.48z" fill="#414042" p-id="107139"></path><path d="M832.05 418.25a177.82 177.82 0 1 1-177.82-177.82 177.83 177.83 0 0 1 177.82 177.82z" fill="#F7BC5D" p-id="107140"></path><path d="M654.23 606.75c-104 0-188.51-84.55-188.51-188.49s84.56-188.51 188.51-188.51 188.5 84.57 188.5 188.51-84.55 188.49-188.5 188.49z m0-355.63c-92.16 0-167.14 75-167.14 167.14s75 167.12 167.14 167.12 167.13-75 167.13-167.12-74.97-167.14-167.13-167.14z" fill="#FFFFFF" p-id="107141"></path><path d="M646.07 499.16V484.8q-25-3.93-46-22.61L618.34 440q15.35 13.38 27.73 17.11v-29.32q-20.66-5.32-30.29-14.26t-9.63-25.76q0-16.8 11-27.72T646.07 347v-9.64h20.84v10q19.65 2.75 39.12 16.32l-16.13 23.2q-12.37-8.85-23-11.8v28.32q21.23 5.5 31.35 14.75t10.13 26.14q0 16.92-11.31 27.92t-30.17 13.17v13.77z m0-124.86q-8.46 3-8.46 10.81t8.46 12z m30.87 71.57a10.92 10.92 0 0 0-2.16-6.89q-2.19-2.75-7.87-5.1v24.18q10.02-3.13 10.03-12.19z" fill="#FFFFFF" p-id="107142"></path><path d="M433.2 596h421.02v72.29H433.2z" fill="#51A6F4" p-id="107143"></path><path d="M456.58 668.29H877.6v72.3H456.58z" fill="#5691EF" p-id="107144"></path><path d="M416.19 740.59h421.02v72.3H416.19z" fill="#51A6F4" p-id="107145"></path><path d="M445.03 812.88h421.02v72.3H445.03z" fill="#5691EF" p-id="107146"></path><path d="M476.59 596h21.37v72.28h-21.37zM513.27 596h21.37v72.28h-21.37zM749.77 668.28h21.37v72.3h-21.37zM786.43 668.28h21.37v72.3h-21.37zM768.11 812.89h21.37v72.28h-21.37zM804.77 812.89h21.37v72.28h-21.37z" fill="#FFFFFF" p-id="107147"></path><path d="M61.66 879.35h895.62v21.37H61.66z" fill="#0062B2" p-id="107148"></path><path d="M445.9 740.59h21.37v72.3H445.9zM482.57 740.59h21.37v72.3h-21.37zM638.68 123.73h21.37v75.62h-21.37zM697.554 203.071l19.482-73.067 20.659 5.508-19.483 73.068zM753.457 221.867l37.786-65.526 18.53 10.685-37.786 65.526zM802.649 254.5l53.322-53.621 15.146 15.061-53.322 53.62zM841.682 298.603l65.427-37.957 10.724 18.484-65.427 37.957zM868.051 351.312l72.991-19.804 5.593 20.615-72.99 19.804zM879.844 409.218l75.62-0.29 0.082 21.37-75.62 0.29zM870.9 488.658l5.438-20.656 73.138 19.255-5.439 20.656zM847.198 542.558l10.6-18.567 65.69 37.5-10.6 18.567z" fill="#FFFFFF" p-id="107149"></path></svg>