<?xml version="1.0" standalone="no"?><!DOCTYPE svg PUBLIC "-//W3C//DTD SVG 1.1//EN" "http://www.w3.org/Graphics/SVG/1.1/DTD/svg11.dtd"><svg t="1783071549300" class="icon" viewBox="0 0 1024 1024" version="1.1" xmlns="http://www.w3.org/2000/svg" p-id="143357" xmlns:xlink="http://www.w3.org/1999/xlink" width="200" height="200"><path d="M0.292571 0.24381m195.047619 0l585.142858 0q195.047619 0 195.047619 195.047619l0 585.142857q0 195.047619-195.047619 195.047619l-585.142858 0q-195.047619 0-195.047619-195.047619l0-585.142857q0-195.047619 195.047619-195.047619Z" fill="#E5E9ED" p-id="143358"></path><path d="M146.578286 146.529524m97.523809 0l487.619048 0q97.52381 0 97.523809 97.523809l0 487.619048q0 97.52381-97.523809 97.523809l-487.619048 0q-97.52381 0-97.523809-97.523809l0-487.619048q0-97.52381 97.523809-97.523809Z" fill="#648CD9" p-id="143359"></path><path d="M244.102095 634.148571h487.619048a48.761905 48.761905 0 0 1 0 97.52381H244.102095a48.761905 48.761905 0 0 1 0-97.52381z m487.619048-97.523809h-97.52381a48.761905 48.761905 0 0 1 0-97.52381h97.52381a48.761905 48.761905 0 0 1 0 97.52381z m0-195.047619h-97.52381a48.761905 48.761905 0 0 1 0-97.52381h97.52381a48.761905 48.761905 0 0 1 0 97.52381z" fill="#79BA38" p-id="143360"></path><path d="M394.288762 253.17181l6.485333-4.144762a25.648762 25.648762 0 0 1 23.893334-3.413334c18.773333 6.826667 35.84 16.920381 50.858666 29.500953 5.948952 4.87619 8.777143 11.702857 9.118476 18.383238l-0.097523 3.900952a55.783619 55.783619 0 0 0 25.063619 54.759619l9.508571 5.461334c7.168 3.120762 13.507048 9.752381 15.116191 18.96838 1.462857 9.606095 2.438095 19.358476 2.438095 29.257143 0 10.142476-0.975238 19.894857-2.438095 29.354667a25.258667 25.258667 0 0 1-12.921905 18.041905l-2.194286 1.072762a59.684571 59.684571 0 0 0-27.452952 24.185904c-6.192762 10.727619-8.533333 23.113143-7.119238 35.84a25.990095 25.990095 0 0 1-9.020953 22.479239 169.545143 169.545143 0 0 1-50.858666 29.354666 25.35619 25.35619 0 0 1-20.577524-1.365333l-3.31581-2.048a60.123429 60.123429 0 0 0-34.767238-11.800381c-9.947429 0-19.504762 2.779429-28.281905 7.704381l-6.485333 4.096a25.648762 25.648762 0 0 1-23.893333 3.413333 169.545143 169.545143 0 0 1-50.858667-29.354666 25.990095 25.990095 0 0 1-9.020952-22.479239c1.414095-12.678095-0.926476-25.112381-7.119238-35.84a56.953905 56.953905 0 0 0-23.747048-22.332952l-3.705905-1.852952a25.990095 25.990095 0 0 1-15.11619-19.114667A180.906667 180.906667 0 0 1 195.34019 405.942857c0-9.947429 0.975238-19.69981 2.438096-29.305905a25.84381 25.84381 0 0 1 12.921904-18.041904l2.194286-0.926477c11.605333-5.412571 21.211429-13.458286 27.452953-24.185904 4.973714-8.582095 7.41181-18.236952 7.509333-28.330667l-0.390095-7.655619a25.551238 25.551238 0 0 1 9.020952-22.332952 169.984 169.984 0 0 1 50.858667-29.500953 25.35619 25.35619 0 0 1 20.577524 1.365334l3.315809 2.048c10.581333 7.606857 22.332952 11.800381 34.767238 11.80038 9.947429 0 19.504762-2.681905 28.281905-7.655619zM366.006857 357.180952c-27.062857 0-48.761905 21.699048-48.761905 48.761905 0 27.014095 21.699048 48.761905 48.761905 48.761905 27.062857 0 48.761905-21.74781 48.761905-48.761905 0-27.062857-21.699048-48.761905-48.761905-48.761905z" fill="#E6B054" p-id="143361"></path></svg>